<svg width="1067" height="192" viewBox="0 0 1067 192" fill="none" xmlns="http://www.w3.org/2000/svg">
<path d="M-71.67 137C-15.6 35.81 38 9.52001 76.33 4.00001C116.99 -1.84999 140.05 15.73 223.33 37C223.33 37 296.33 55.65 393.33 65C431.57 68.69 485.83 70.85 788.33 21C898.77 2.80001 912.14 -0.879988 947.33 1.00001C1050.62 6.53001 1132.79 48.84 1186.33 84C1131.79 109.802 1075.28 131.203 1017.33 148C856.93 194.47 725.45 193.7 605.33 190C350.76 182.15 117.17 160.17 -71.67 137Z" fill="url(#paint0_linear_1_2597)"/>
<defs>
<linearGradient id="paint0_linear_1_2597" x1="557.33" y1="-235.64" x2="557.33" y2="576.28" gradientUnits="userSpaceOnUse">
<stop offset="0.22" stop-color="#F9AB9F"/>
<stop offset="0.95" stop-color="#F38979"/>
</linearGradient>
</defs>
</svg>
