<svg width="630" height="449" viewBox="0 0 630 449" fill="none" xmlns="http://www.w3.org/2000/svg">
<path d="M373.33 427C311.16 412.56 245.92 394.48 120.33 359.46V207H173.33C176.513 207 179.565 205.736 181.815 203.485C184.066 201.235 185.33 198.183 185.33 195V136C185.33 132.552 183.96 129.246 181.522 126.808C179.084 124.37 175.778 123 172.33 123H169.67C166.222 123 162.916 124.37 160.478 126.808C158.04 129.246 156.67 132.552 156.67 136V167H120.33V18.5C120.33 13.5935 118.381 8.88794 114.911 5.41852C111.442 1.9491 106.737 0 101.83 0H93.83C88.9235 0 84.218 1.9491 80.7485 5.41852C77.2791 8.88794 75.33 13.5935 75.33 18.5V96H58.33V73C58.33 69.8174 57.0657 66.7652 54.8153 64.5147C52.5649 62.2643 49.5126 61 46.33 61H33.33C30.1474 61 27.0952 62.2643 24.8447 64.5147C22.5943 66.7652 21.33 69.8174 21.33 73V125C21.33 128.183 22.5943 131.235 24.8447 133.485C27.0952 135.736 30.1474 137 33.33 137H75.33V346.89C39.19 336.75 9.10002 328.21 -12.67 322L-30.67 477L629.33 472C543.256 461.569 457.801 446.547 373.33 427Z" fill="url(#paint0_linear_1_2629)"/>
<defs>
<linearGradient id="paint0_linear_1_2629" x1="13.98" y1="414.23" x2="566.76" y2="128.96" gradientUnits="userSpaceOnUse">
<stop offset="0.04" stop-color="#5C2931"/>
<stop offset="0.44" stop-color="#843A45"/>
<stop offset="0.96" stop-color="#DB4D63"/>
</linearGradient>
</defs>
</svg>
