<svg width="288" height="118" viewBox="0 0 288 118" fill="none" xmlns="http://www.w3.org/2000/svg">
<path d="M29.66 82.4C49.2667 86.2 69.22 89.8033 89.52 93.21C158.31 104.73 224.52 112.69 287.62 117.85L243.93 105.18C244.56 97.67 241.17 90.58 235.16 86.95C230.866 84.502 225.786 83.824 221 85.06C158.467 22.06 122.607 -5.94001 113.42 1.05999C107.14 5.84666 113.303 26.9667 131.91 64.42C126.77 47.89 114 40.32 106.45 43C99.64 45.39 97.55 55.86 97.28 57.35C95.53 50.35 88.34 47.02 83.22 49.13C79.13 50.82 76.47 55.96 77.58 61.34C71.11 56.53 30.58 26.78 20.58 36.04C14.04 42.04 23.01 62.43 29.52 75.14L0.180023 71.64L29.66 82.4Z" fill="url(#paint0_linear_1_2653)"/>
<defs>
<linearGradient id="paint0_linear_1_2653" x1="11546.6" y1="10008.2" x2="94171.3" y2="10008.2" gradientUnits="userSpaceOnUse">
<stop offset="0.07" stop-color="#F9DAC8"/>
<stop offset="0.95" stop-color="#F3ADA3"/>
</linearGradient>
</defs>
</svg>
