<svg width="630" height="178" viewBox="0 0 630 178" fill="none" xmlns="http://www.w3.org/2000/svg">
<path d="M124.71 150.894C209.26 134.604 271.2 126.254 290.64 123.454C361.64 113.244 469.43 90.2144 629.5 33.5244L566.47 19.7144C554.944 10.1047 541.079 3.71761 526.285 1.20242C511.491 -1.31277 496.294 0.133569 482.24 5.39443C440.98 21.0544 430.67 62.5544 429.91 65.8744C418.847 61.9293 406.885 61.2353 395.44 63.8744C371.92 69.4244 359.94 87.4244 357.38 91.4744C369.08 49.5478 369.2 24.7011 357.74 16.9344C338.9 4.16776 288.78 37.5478 207.38 117.074C206.24 115.394 194.38 98.4544 172.93 97.9444C165.037 97.8357 157.265 99.8876 150.454 103.878C143.643 107.869 138.054 113.646 134.29 120.584C131.06 117.774 118.98 107.964 102.75 109.164C83.38 110.594 65.97 127.164 61.24 150.254L0 177.554C28.69 170.794 71.87 161.074 124.71 150.894Z" fill="url(#paint0_linear_1_2652)"/>
<defs>
<linearGradient id="paint0_linear_1_2652" x1="254054" y1="9243.48" x2="650349" y2="9243.48" gradientUnits="userSpaceOnUse">
<stop offset="0.07" stop-color="#F9DAC8"/>
<stop offset="0.95" stop-color="#F3ADA3"/>
</linearGradient>
</defs>
</svg>
