<svg width="264" height="86" viewBox="0 0 264 86" fill="none" xmlns="http://www.w3.org/2000/svg">
<path d="M0.330048 86C23.9967 83.7 47.6634 81.3667 71.33 79C135.33 72.5867 199.33 65.92 263.33 59L243.33 50C242.98 48.1 239.67 31.78 225.33 25C211.23 18.34 192.33 23.66 181.33 39C192.177 17.04 195.51 4.37333 191.33 0.999992C185.037 -4.08001 161.703 11.92 121.33 49C117.13 31.42 111.75 30.16 110.33 30C99.81 28.79 88.91 63.14 88.33 65C77.33 68.9 65.33 72.65 52.33 76C35.221 80.4092 17.8541 83.749 0.330048 86Z" fill="url(#paint0_linear_1_2654)"/>
<defs>
<linearGradient id="paint0_linear_1_2654" x1="148156" y1="12977.2" x2="217325" y2="12977.2" gradientUnits="userSpaceOnUse">
<stop offset="0.07" stop-color="#F9DAC8"/>
<stop offset="0.95" stop-color="#F3ADA3"/>
</linearGradient>
</defs>
</svg>
