<svg width="642" height="250" viewBox="0 0 642 250" fill="none" xmlns="http://www.w3.org/2000/svg">
<path d="M18.33 67C20.51 56.52 36.4101 54.47 156.33 29C286.53 1.35 281.01 0.949999 288.33 0.999999C379.62 1.57 392.63 57.39 541.33 108C610.98 131.7 648.47 133.19 652.33 155C657.44 183.88 599.18 223.34 546.33 240C488.45 258.25 432.75 250.51 302.33 205C183.73 163.61 10.82 103.27 18.33 67Z" fill="url(#paint0_linear_1_2599)"/>
<path d="M321.33 22C325.27 25.63 328.25 29.61 327.33 33C323.49 47.19 255.68 34.5 252.33 46C248.46 59.3 336.39 86.17 333.33 102C329.72 120.67 199.33 124.88 189.33 92C183.6 73.08 219.4 47.3 225.33 43C264.64 14.55 309.25 20.09 321.33 22Z" fill="#FF8B7B"/>
<path d="M288.33 1C307.48 10.54 327.24 22.25 325.33 30C321.88 44 250.62 32.84 247.33 46C243.54 61.19 336.06 85.82 333.33 104C330.45 123.26 220.99 133.13 115.33 107C75.3455 97.079 36.7251 82.3025 0.330017 63C45.3033 52.88 90.3034 42.88 135.33 33C184.663 22.18 233.997 11.5133 283.33 1H288.33Z" fill="url(#paint1_linear_1_2599)"/>
<path d="M247.33 46C239.56 52.38 231.24 58.74 222.33 65C189.692 87.8619 154.012 106.039 116.33 119C145.9 118.35 169.91 119.15 186.33 120C211.91 121.32 226.05 121.88 254.33 123C273.191 123.788 292.064 121.766 310.33 117C326.65 112.69 332.95 108.49 333.33 104C333.57 101.24 331.56 98.73 327.33 95C319.011 87.8096 309.547 82.0635 299.33 78C299.33 78 291.13 74.52 260.33 60C256.355 58.2524 252.908 55.4942 250.33 52C249.039 50.1595 248.028 48.1374 247.33 46Z" fill="url(#paint2_linear_1_2599)"/>
<defs>
<linearGradient id="paint0_linear_1_2599" x1="154" y1="-130.86" x2="560.52" y2="416.38" gradientUnits="userSpaceOnUse">
<stop offset="0.26" stop-color="#6A5A67"/>
<stop offset="0.41" stop-color="#8E696F"/>
<stop offset="0.75" stop-color="#E98E82"/>
<stop offset="0.78" stop-color="#F29284"/>
</linearGradient>
<linearGradient id="paint1_linear_1_2599" x1="362.45" y1="-116.25" x2="-79.6999" y2="337.17" gradientUnits="userSpaceOnUse">
<stop offset="0.05" stop-color="#F8B286"/>
<stop offset="0.97" stop-color="#FBD8BA"/>
</linearGradient>
<linearGradient id="paint2_linear_1_2599" x1="345.38" y1="-78.88" x2="53.1001" y2="384.08" gradientUnits="userSpaceOnUse">
<stop offset="0.06" stop-color="#ED935A"/>
<stop offset="0.97" stop-color="#FBD8BA"/>
</linearGradient>
</defs>
</svg>
