<svg width="1067" height="329" viewBox="0 0 1067 329" fill="none" xmlns="http://www.w3.org/2000/svg">
<path d="M-107.67 142.9C8.07001 144.7 93.75 121.81 151.33 100.01C275.24 53.09 350.61 -19.69 452.33 6.01C490.13 15.56 514.18 34.3 526.33 43.01C602.48 97.54 758.69 149.36 1107.33 142.91L1110.33 468.01C892.997 460.47 675.663 452.943 458.33 445.43L-162.67 423.99C-144.33 330.283 -125.997 236.587 -107.67 142.9Z" fill="url(#paint0_linear_1_2608)"/>
<path d="M791.33 202C902.33 196.27 938.79 198.08 939.33 203C940.11 210 870.02 217.9 869.33 235C868.33 258.75 1014.03 277.83 1012.33 295C1011.45 304 971.42 303.79 970.33 314C968.84 328.13 1044.21 340.4 1043.33 350C1041.75 367.47 788.88 365.8 785.33 336C784.01 324.84 822.48 317.56 822.33 300C822.06 268.09 694.64 254.06 695.33 232C695.59 223.92 713.07 213.16 791.33 202Z" fill="url(#paint1_radial_1_2608)"/>
<path d="M1081.33 186C896.92 189.19 834.59 195.61 834.33 203C834.17 207.66 858.77 211.22 860.33 224C862.01 237.73 835.01 245 835.33 256C836.1 282.16 990.33 292.54 990.33 310C990.33 320.83 930.98 321.25 929.33 335C926.65 357.4 1075.33 431.06 1126.33 376C1159.24 340.49 1151.63 251.32 1081.33 186Z" fill="url(#paint2_linear_1_2608)"/>
<path d="M625.33 124C689.7 214.21 755.91 254.49 808.33 274C852.79 290.55 905.81 299 905.33 313C904.69 331.84 807.43 335.43 806.33 355C805.1 377 927.58 387.42 927.33 406C926.96 433.7 680.56 445.18 459.33 413C396.6 403.88 331.12 390.55 311.33 344C294.51 304.42 318.95 259.57 326.33 246C393.93 121.81 600 123.48 625.33 124Z" fill="url(#paint3_linear_1_2608)"/>
<path d="M440.33 6C374.73 17.7333 341.73 30.4 341.33 44C340.75 64.2533 412.417 86.5867 556.33 111C414.24 134.52 305.16 133.33 294.33 103C293.41 100.41 281.46 64.26 299.33 40C299.61 39.63 299.94 39.19 300.33 38.69C315.19 20.94 338 16.83 358.33 14C386.32 10.1 413.65 7.5 440.33 6Z" fill="#FF8B7B"/>
<path d="M375.33 227C364.88 236.65 364.46 242.11 365.33 245C369.33 258.16 411.4 255.69 421.33 255C435.628 255.751 449.757 258.443 463.33 263C507.19 277.8 529.89 307.68 548.33 325C572.51 347.69 614.73 372.61 693.33 377C643.109 386.302 592.334 392.315 541.33 395C395.19 402.71 366.11 376.87 357.33 368C329.79 340.18 320.4 293.57 331.33 266C340.16 243.74 356.33 234 356.33 234C362.173 230.506 368.617 228.133 375.33 227Z" fill="url(#paint4_linear_1_2608)"/>
<path d="M511.33 102C606.8 108.38 627.21 120.32 628.33 130C630.8 151.15 543.33 179.81 457.33 208C402.61 225.94 356.92 238.27 326.33 246C400.135 216.047 464.179 166.197 511.33 102Z" fill="#FF8B7B"/>
<path d="M447.33 5C389.14 15 334.33 28.34 334.33 44C334.33 79 607.54 90.75 609.33 134C611.11 176.81 345.64 218.49 349.33 243.22C351.69 258.98 461.4 254.49 462.33 267.83C463.23 280.54 368.41 287.93 366.33 311.14C363.79 339.58 502.8 364.36 501.33 379.07C499.11 401.34 176.33 388.96 -162.67 370.21C-144.33 288.497 -125.997 206.787 -107.67 125.08C-50.9124 125.306 5.71831 119.7 61.33 108.35C61.33 108.35 173.92 85.17 309.33 26C310.83 25.35 317.33 22.47 326.33 19C340.41 13.56 353.24 8.59 369.33 5C381.39 2.31 401.18 -1.94 426.33 1C433.417 1.83027 440.435 3.16703 447.33 5Z" fill="url(#paint5_linear_1_2608)"/>
<path d="M335.33 40C314.41 59.6467 292.41 79.3133 269.33 99C189.986 166.475 105.009 227.029 15.33 280C58.3599 296.636 104.203 304.786 150.33 304C236.28 302.42 299.73 269.82 329.33 252C351.51 238.65 363.87 232 393.33 220C427.73 206 474.18 195.73 492.33 191C530.88 181 617.23 153.18 615.33 131C614.39 120 591.33 113.67 545.33 101C505.7 90.09 461 83 442.33 80C440.06 79.64 424.47 77.16 404.33 73C397.38 71.56 397.17 71.43 393.55 70.53C388.01 69.15 380.78 67.53 378.33 67C371.44 65.46 364.07 62.64 349.33 57C344.5 55.15 340.96 53.72 338.33 50C336.35 47.0428 335.305 43.5587 335.33 40Z" fill="url(#paint6_linear_1_2608)"/>
<path d="M375.33 227C319.756 250.258 263.013 270.618 205.33 288C131.233 310.325 55.7329 327.696 -20.67 340C29.53 359.82 158.07 402.12 292.33 350C307.87 344 348.82 334.78 366.33 311C369.414 306.503 373.117 302.463 377.33 299C389.19 289.37 399.95 288.87 420.33 284C434.8 280.54 462.57 273.9 462.33 268C462.19 264.52 452.33 262.35 441.33 260C411.41 253.62 397.14 259 372.33 251C364.98 248.62 354.48 245.12 354.33 240C354.13 233.05 373.13 227.61 375.33 227Z" fill="url(#paint7_linear_1_2608)"/>
<defs>
<linearGradient id="paint0_linear_1_2608" x1="254717" y1="149393" x2="439251" y2="583080" gradientUnits="userSpaceOnUse">
<stop offset="0.26" stop-color="#6A5A67"/>
<stop offset="0.41" stop-color="#8E696F"/>
<stop offset="0.75" stop-color="#E98E82"/>
<stop offset="0.78" stop-color="#F29284"/>
</linearGradient>
<radialGradient id="paint1_radial_1_2608" cx="0" cy="0" r="1" gradientUnits="userSpaceOnUse" gradientTransform="translate(729.63 344.293) scale(376.12 285.851)">
<stop offset="0.42" stop-color="#F19A89"/>
<stop offset="0.77" stop-color="#CE857F" stop-opacity="0.1"/>
</radialGradient>
<linearGradient id="paint2_linear_1_2608" x1="196735" y1="23120.8" x2="292229" y2="188128" gradientUnits="userSpaceOnUse">
<stop offset="0.26" stop-color="#6A5A67"/>
<stop offset="0.41" stop-color="#8E696F"/>
<stop offset="0.75" stop-color="#E98E82"/>
<stop offset="0.78" stop-color="#F29284"/>
</linearGradient>
<linearGradient id="paint3_linear_1_2608" x1="263460" y1="82339.9" x2="328234" y2="316874" gradientUnits="userSpaceOnUse">
<stop offset="0.26" stop-color="#6A5A67"/>
<stop offset="0.41" stop-color="#8E696F"/>
<stop offset="0.75" stop-color="#E98E82"/>
<stop offset="0.78" stop-color="#F29284"/>
</linearGradient>
<linearGradient id="paint4_linear_1_2608" x1="156593" y1="69129.1" x2="170951" y2="146767" gradientUnits="userSpaceOnUse">
<stop offset="0.26" stop-color="#6A5A67"/>
<stop offset="0.41" stop-color="#8E696F"/>
<stop offset="0.75" stop-color="#E98E82"/>
<stop offset="0.78" stop-color="#F29284"/>
</linearGradient>
<linearGradient id="paint5_linear_1_2608" x1="350793" y1="70394.7" x2="243035" y2="353801" gradientUnits="userSpaceOnUse">
<stop offset="0.06" stop-color="#ED935A"/>
<stop offset="0.97" stop-color="#FBD8BA"/>
</linearGradient>
<linearGradient id="paint6_linear_1_2608" x1="308683" y1="81676.9" x2="220233" y2="253955" gradientUnits="userSpaceOnUse">
<stop offset="0.05" stop-color="#F8B286"/>
<stop offset="0.97" stop-color="#FBD8BA"/>
</linearGradient>
<linearGradient id="paint7_linear_1_2608" x1="158046" y1="57665.2" x2="144393" y2="136074" gradientUnits="userSpaceOnUse">
<stop offset="0.05" stop-color="#F8B286"/>
<stop offset="0.97" stop-color="#FBD8BA"/>
</linearGradient>
</defs>
</svg>
